<?xml version="1.0" encoding="utf-8"?>
<!-- Generator: Adobe Illustrator 26.3.1, SVG Export Plug-In . SVG Version: 6.00 Build 0)  -->
<svg version="1.1" xmlns="http://www.w3.org/2000/svg" xmlns:xlink="http://www.w3.org/1999/xlink" x="0px" y="0px" viewBox="0 0 512 512" style="enable-background:new 0 0 512 512;" xml:space="preserve">
    <style type="text/css">
	.st0{display:none;}
	.st1{display:inline;}
	.st2{stroke:#DBD9D4;stroke-miterlimit:10;}
</style>
    <g id="base_O" fill="#DBD9D4" class="st0">
        <g class="st1">
            <path d="M251.97,396.1c-21.42,0-41.27-3.64-59.53-10.92c-18.27-7.27-34.2-17.57-47.79-30.9c-13.6-13.32-24.1-28.84-31.52-46.56
			c-7.42-17.72-11.12-37.01-11.12-57.89c0-20.87,3.71-40.17,11.12-57.89s17.92-33.23,31.52-46.56c13.6-13.32,29.52-23.62,47.79-30.9
			c18.26-7.27,38.11-10.92,59.53-10.92c21.42,0,41.27,3.64,59.53,10.92c18.26,7.28,34.12,17.51,47.59,30.69
			c13.45,13.18,23.96,28.63,31.52,46.35c7.55,17.72,11.33,37.15,11.33,58.3c0,21.15-3.78,40.58-11.33,58.3
			c-7.56,17.71-18.06,33.17-31.52,46.35c-13.46,13.18-29.32,23.42-47.59,30.69C293.24,392.46,273.4,396.1,251.97,396.1z
			 M251.97,376.73c18.4,0,35.43-3.15,51.09-9.48c15.66-6.31,29.25-15.24,40.79-26.78c11.54-11.54,20.53-24.99,26.99-40.38
			c6.45-15.38,9.68-32.13,9.68-50.26c0-18.4-3.23-35.23-9.68-50.47c-6.46-15.24-15.45-28.63-26.99-40.17
			c-11.54-11.54-25.13-20.46-40.79-26.78c-15.66-6.31-32.69-9.48-51.09-9.48c-18.4,0-35.43,3.16-51.09,9.48
			c-15.66,6.32-29.32,15.24-40.99,26.78c-11.68,11.54-20.74,24.93-27.19,40.17c-6.46,15.24-9.68,32.07-9.68,50.47
			c0,18.13,3.23,34.88,9.68,50.26c6.45,15.39,15.51,28.84,27.19,40.38c11.67,11.54,25.34,20.46,40.99,26.78
			C216.54,373.58,233.57,376.73,251.97,376.73z" />
        </g>
    </g>
    <g id="base_S" fill="#DBD9D4">
        <g>
            <path d="M235.54,344.8l-99.84-224h17.92l95.36,214.08h-9.92l95.68-214.08h16.96l-99.84,224H235.54z" />
        </g>
        <polygon class="st2" points="236.5,343.5 221.5,379.5 235.14,379.5 251.5,345.5 	" />
        <polygon class="st2" points="251.59,344.5 266.59,379.5 252.95,379.5 236.59,345.5 	" />
    </g>
</svg>